<svg xmlns="http://www.w3.org/2000/svg" viewBox="0 0 128 128">
  <path fill="#2496ED" d="M124.8 52.1c-2.9-2-10-2.7-15.3-1.7-.6-5.1-3.5-9.5-8.7-13.5l-3-2-2 3c-2.5 3.8-3.2 10-2.8 14.7-2.1-1.2-5.5-2.8-9.3-2.3H0s0 22.7 14.3 32.2c-3.4 1.9-10.2 2.3-13.6 2.3H.4C2 89.5 8 95.6 17 95.6c20.8 0 36.2-9.6 43.5-27.1h3.8c.6 0 1.2 0 1.8-.1l.2 27.1h6.8s-.1-27.2-.1-27.4c4.3-.5 8.7-3.2 11.3-7.5h.7c3.5 0 6.7-.5 9.2-1.5.2 1.6.4 3.3.3 5.1-.4 10.1-7.1 15.4-6.5 15.4h8.3c.5 0 13.6-5.2 14.3-20.7.1-1.8.1-4.3-2.7-6.8zM28 60.1H18v-10h10v10zm14 0H32v-10h10v10zm14 0H46v-10h10v10zm14 0H60v-10h10v10zM42 48H32V38h10v10zm14 0H46V38h10v10zm14 0H60V38h10v10zm14-12H74V26h10v10z"/>
</svg>
