<svg xmlns="http://www.w3.org/2000/svg" viewBox="0 0 128 128">
  <path fill="#0074BD" d="M47.6 98.9s-4.5 2.6 3.2 3.5c9.3 1.1 14.1 0.9 24.3-1 0 0 2.7 1.7 6.5 3.1-23.1 9.9-52.2-0.6-34-5.6zm-2.8-12.8s-5 3.7 2.6 4.5c9.9 1 17.7 1.1 31.2-1.5 0 0 1.9 1.9 4.9 3-27.6 8.1-58.3 0.6-38.7-6z"/>
  <path fill="#EA2D2E" d="M69.6 41.4c5.6 6.5-1.5 12.3-1.5 12.3s14.2-7.3 7.7-16.5c-6.1-8.6-10.8-12.8 14.5-27.5 0 0-39.6 9.9-20.7 31.7z"/>
  <path fill="#0074BD" d="M97.5 107.8s3.3 2.7-3.7 4.8c-13.2 4-55 5.2-66.6 0.2-4.2-1.8 3.6-4.3 6.1-4.8 2.5-0.6 4-0.5 4-0.5-4.6-3.2-29.8 6.4-12.8 9.1 46.3 7.5 84.5-3.4 73-8.8zM49.8 70.7s-21.1 5-7.5 6.8c5.8 0.8 17.3 0.6 28-0.3 8.8-0.7 17.6-2.3 17.6-2.3s-3.1 1.3-5.3 2.8c-21.6 5.7-63.3 3-51.3-2.7 10.1-4.9 18.5-4.3 18.5-4.3zm38 21.3c21.9-11.4 11.8-22.3 4.7-20.8-1.7 0.4-2.5 0.7-2.5 0.7s0.6-1 1.9-1.4c13.8-4.9 24.5 14.4-4.5 22-0.1 0 0.3-0.2 0.4-0.5z"/>
  <path fill="#EA2D2E" d="M76.2 1s12.1 12.1-11.4 30.7c-18.8 14.8-4.3 23.3 0 33-11-9.9-19-18.6-13.6-26.7C58.8 26.7 80.4 21 76.2 1z"/>
  <path fill="#0074BD" d="M52 126.1c21 1.3 53.2-0.7 54-10.3 0 0-1.5 3.8-17.4 6.8-17.8 3.4-39.8 3-52.8 0.8 0 0 2.7 2.2 16.2 2.7z"/>
</svg>
