<svg xmlns="http://www.w3.org/2000/svg" viewBox="0 0 128 128">
  <path fill="#A41E11" d="M121.8 93.1c-6.7 3.5-41.4 17.7-48.8 21.6-7.4 3.8-11.5 3.8-17.3 1S9 98.1 2.4 94.6c-3.3-1.7-3.3-3.6 0-5.4l14.4-6.9c-3.3-1.7-3.3-3.6 0-5.4l14.4-6.9c-3.3-1.7-3.3-3.6 0-5.4L64 51.6l12 6.5 12-6.5 12 6.5 12-6.5 5.8 3.1c3.3 1.7 3.3 4.5 0 6.2l-14.4 7.7c3.3 1.7 3.3 4.5 0 6.2l-14.4 7.7 14.4 7.7c3.3 1.7 3.3 4.5 0 6.2z"/>
  <path fill="#D82C20" d="M121.8 80.5c-6.7 3.5-41.4 17.7-48.8 21.6-7.4 3.8-11.5 3.8-17.3 1S9 85.5 2.4 82c-3.3-1.7-3.3-4.5 0-6.2l14.4-7.7 46.4 24.8 46.4-24.8 12.2 6.5c3.3 1.7 3.3 4.5 0 6.2z"/>
  <path fill="#FF6A60" d="M121.8 67.9c-6.7 3.5-41.4 17.7-48.8 21.6-7.4 3.8-11.5 3.8-17.3 1S9 72.9 2.4 69.4C-.9 67.7-.9 65 2.4 63.2L63.2 32l58.6 29.7c3.3 1.7 3.3 4.5 0 6.2z"/>
  <path fill="#fff" d="M80.4 42.8L60.8 34l-8 4.6 19.6 8.8 8-4.6zm-32 0L67.2 34l-8-4.6-18.8 8.8 8 4.6z"/>
</svg>
