<svg xmlns="http://www.w3.org/2000/svg" viewBox="0 0 128 128">
  <path fill="#38BDF8" d="M64 16c-17.1 0-27.8 8.5-32 25.6 6.4-8.5 13.9-11.7 22.4-9.6 4.9 1.2 8.3 4.7 12.2 8.6C72.9 47 79.8 54 96 54c17.1 0 27.8-8.5 32-25.6-6.4 8.5-13.9 11.7-22.4 9.6-4.9-1.2-8.3-4.7-12.2-8.6C87.1 23 80.2 16 64 16zm-32 38.4C14.9 54.4 4.2 62.9 0 80c6.4-8.5 13.9-11.7 22.4-9.6 4.9 1.2 8.3 4.7 12.2 8.6C40.9 85.4 47.8 92.4 64 92.4c17.1 0 27.8-8.5 32-25.6-6.4 8.5-13.9 11.7-22.4 9.6-4.9-1.2-8.3-4.7-12.2-8.6C55.1 61.4 48.2 54.4 32 54.4z"/>
</svg>
